<svg width="189" height="149" viewBox="0 0 189 149" fill="none" xmlns="http://www.w3.org/2000/svg">
<path fill-rule="evenodd" clip-rule="evenodd" d="M136.284 3.6686C144.301 0.810708 152.466 -0.18991 162.335 0.0290341C167.018 0.132919 171.205 3.05051 172.889 7.45355C179.331 24.2969 179.519 37.6618 174.909 60.962C174.798 61.5255 174.915 62.0847 175.199 62.5173L187.012 80.4941C190.004 85.0471 189.553 91.0444 185.915 95.0991L141.789 144.268C139.513 146.804 136.266 148.253 132.858 148.253H58.7299C55.2836 148.253 52.0037 146.771 49.7256 144.185L2.9957 91.1407C-0.821305 86.8079 -1.01122 80.371 2.54372 75.8206L14.5446 60.4595C14.9279 59.9689 15.0822 59.2716 14.8895 58.5766C12.1019 48.5235 10.5481 40.0433 10.9093 31.7248C11.274 23.3223 13.5739 15.4362 17.9675 6.49539C19.8725 2.61866 23.7759 0.145834 28.0698 0.0426607C37.7716 -0.190456 45.7627 0.795526 53.5326 3.65302C61.2494 6.49095 68.4279 11.059 76.6477 17.5175C77.0507 17.8341 77.5195 17.9886 77.9614 17.9886H110.845C111.272 17.9886 111.719 17.8464 112.109 17.5558C120.804 11.0717 128.322 6.50667 136.284 3.6686ZM139.642 13.088C133.018 15.4492 126.415 19.3618 118.087 25.5724C116.047 27.0935 113.556 27.9639 110.956 27.988L96.2386 45.5135C95.4393 46.4653 93.9747 46.4653 93.1754 45.5135L78.4583 27.9886H77.9614C75.2088 27.9886 72.5784 27.0377 70.4695 25.3806C62.6284 19.2197 56.3964 15.361 50.081 13.0385C43.8188 10.7355 37.156 9.82722 28.31 10.0398C27.7167 10.054 27.1934 10.395 26.9424 10.9057C22.9974 18.9338 21.1906 25.4614 20.8999 32.1585C20.6055 38.9397 21.8474 46.2451 24.5259 55.9045C25.5391 59.5586 24.8202 63.5499 22.4249 66.6159L10.424 81.9771C9.83148 82.7355 9.86312 83.8083 10.4993 84.5304L25.4073 101.453C25.5914 101.17 25.8014 100.899 26.037 100.644L57.986 66.0488C60.2101 63.6405 63.9554 63.463 66.3972 65.6503L79.2022 77.1207C81.4775 79.1588 81.8528 82.578 80.1162 85.091C65.8547 105.729 57.5921 122.425 57.0225 137.341L57.2292 137.575C57.6088 138.006 58.1555 138.253 58.7299 138.253H132.858C132.975 138.253 133.09 138.243 133.203 138.223C132.933 123.083 124.628 106.137 110.085 85.091C108.348 82.578 108.724 79.1588 110.999 77.1207L123.804 65.6503C126.246 63.463 129.991 63.6405 132.215 66.0488L164.164 100.644C164.778 101.309 165.219 102.081 165.479 102.898L178.472 88.42C179.079 87.7442 179.154 86.7447 178.655 85.9858L166.842 68.0091C165.086 65.338 164.49 62.1009 165.1 59.0212C169.497 36.7959 169.085 25.5002 163.549 11.026C163.327 10.4466 162.764 10.041 162.114 10.0266C153.096 9.82652 146.21 10.7467 139.642 13.088ZM108.94 108.383C108.94 113.886 102.567 118.346 94.707 118.346C86.8466 118.346 80.4745 113.886 80.4745 108.383C80.4745 102.881 86.8466 98.4207 94.707 98.4207C102.567 98.4207 108.94 102.881 108.94 108.383ZM157.716 20.3193C157.807 18.8405 156.315 17.7793 154.948 18.3508L135.718 26.391C134.271 26.9963 134.052 28.9566 135.331 29.866L153.275 42.6291C154.554 43.5385 156.334 42.6886 156.431 41.1226L157.716 20.3193ZM34.565 18.3508C33.1981 17.7793 31.706 18.8405 31.7973 20.3193L33.0825 41.1226C33.1792 42.6886 34.9593 43.5385 36.2379 42.6291L54.1824 29.8661C55.461 28.9566 55.2423 26.9963 53.7947 26.391L34.565 18.3508Z" fill="#008080"/>
</svg>
